<?xml version="1.0" standalone="no"?>
<!DOCTYPE svg PUBLIC "-//W3C//DTD SVG 20010904//EN"
 "http://www.w3.org/TR/2001/REC-SVG-20010904/DTD/svg10.dtd">
<svg version="1.0" xmlns="http://www.w3.org/2000/svg"
 width="992.000000pt" height="992.000000pt" viewBox="0 0 992.000000 992.000000"
 preserveAspectRatio="xMidYMid meet">
<metadata>
Created by potrace 1.11, written by Peter Selinger 2001-2013
</metadata>
<g transform="translate(0.000000,992.000000) scale(0.100000,-0.100000)"
fill="#000000" stroke="none">
<path d="M4857 9904 c-51 -18 -93 -48 -145 -103 -24 -25 -90 -94 -145 -152
-91 -94 -408 -426 -512 -534 -22 -23 -119 -125 -216 -226 -97 -101 -198 -206
-224 -234 -53 -57 -339 -356 -436 -456 l-64 -67 -255 -62 c-140 -34 -262 -63
-270 -65 -8 -2 -35 -8 -60 -15 -43 -12 -54 -14 -101 -25 -11 -2 -28 -6 -37 -9
-9 -3 -28 -7 -42 -10 -14 -3 -70 -17 -125 -31 -78 -19 -540 -132 -615 -150
-47 -11 -649 -159 -720 -177 -134 -33 -206 -84 -251 -176 -34 -69 -32 -179 5
-291 15 -46 29 -91 31 -100 2 -9 14 -47 25 -86 12 -38 24 -79 27 -90 3 -11 14
-49 25 -85 11 -36 24 -78 28 -95 4 -16 20 -70 35 -120 15 -49 48 -164 75 -255
27 -91 89 -302 138 -470 50 -168 127 -431 172 -584 l83 -279 -23 -81 c-13 -45
-32 -108 -42 -140 -10 -33 -20 -69 -23 -80 -2 -12 -13 -50 -23 -86 -35 -115
-123 -415 -127 -430 -4 -19 -143 -495 -156 -535 -10 -31 -154 -527 -194 -665
-2 -8 -20 -71 -40 -140 -45 -153 -47 -216 -12 -293 30 -65 50 -90 103 -127 45
-32 150 -65 299 -94 19 -4 334 -81 540 -132 55 -13 109 -26 120 -29 11 -2 67
-16 125 -30 163 -40 353 -86 375 -91 11 -2 85 -20 165 -40 80 -19 152 -37 160
-39 8 -2 56 -13 105 -25 50 -12 97 -23 105 -25 8 -2 44 -11 80 -20 36 -9 76
-19 90 -21 14 -3 39 -9 55 -14 17 -5 41 -11 55 -14 105 -18 77 8 520 -456 30
-32 143 -149 250 -260 107 -111 221 -230 254 -264 32 -33 147 -153 256 -266
109 -113 221 -230 250 -260 261 -276 287 -294 415 -295 130 0 144 9 385 261
230 240 459 480 505 529 61 64 365 382 430 449 130 136 399 418 456 479 35 37
70 67 78 67 8 0 28 5 45 10 17 6 171 44 341 86 171 41 357 86 415 101 58 14
110 26 115 28 6 1 21 5 35 8 27 7 715 176 740 182 60 13 282 67 310 75 19 5
94 24 165 41 179 43 247 86 297 187 41 83 33 162 -36 392 -119 399 -145 486
-160 540 -8 30 -28 100 -45 155 -30 100 -109 367 -223 755 -33 113 -78 266
-100 340 -22 74 -49 167 -60 206 l-20 70 52 180 c28 98 56 193 61 209 5 17 27
93 49 170 23 77 50 169 60 205 11 36 51 175 90 310 39 135 76 259 81 275 5 17
47 161 93 320 47 160 105 362 131 449 30 104 46 177 46 215 1 127 -83 241
-206 281 -38 12 -176 47 -220 55 -11 2 -114 27 -230 55 -115 28 -293 72 -395
96 -102 25 -248 60 -325 79 -344 84 -521 127 -540 130 -11 3 -102 25 -202 50
-100 24 -195 47 -210 50 -15 3 -62 14 -103 25 -85 22 -33 -26 -500 460 -118
123 -263 274 -321 334 -59 61 -135 140 -169 176 -55 58 -370 385 -520 541
-261 270 -275 281 -395 285 -40 1 -86 -4 -108 -12z"/>
</g>
</svg>
